<svg width="16" height="16" viewBox="0 0 16 16" fill="none" xmlns="http://www.w3.org/2000/svg">
<path fill-rule="evenodd" clip-rule="evenodd" d="M12 1C13.6569 1 15 2.34315 15 4V12C15 13.6569 13.6569 15 12 15H4C2.34315 15 1 13.6569 1 12V4C1 2.34315 2.34315 1 4 1H12ZM4 11C3.44772 11 3 11.4477 3 12C3 12.5523 3.44772 13 4 13H5V11H4ZM11 13H12C12.5523 13 13 12.5523 13 12C13 11.4477 12.5523 11 12 11H11V13ZM6 13H10V11H6V13ZM4 8C3.44772 8 3 8.44772 3 9C3 9.55228 3.44772 10 4 10H5V8H4ZM11 10H12C12.5523 10 13 9.55228 13 9C13 8.44772 12.5523 8 12 8H11V10ZM6 10H10V8H6V10ZM4 5C3.44772 5 3 5.44772 3 6C3 6.55228 3.44772 7 4 7H5V5H4ZM11 7H12C12.5523 7 13 6.55228 13 6C13 5.44772 12.5523 5 12 5H11V7ZM6 7H10V5H6V7Z" fill="#241F31"/>
</svg>
