<svg width="16" height="16" viewBox="0 0 16 16" fill="none" xmlns="http://www.w3.org/2000/svg">
<path d="M3.715 1C2.99615 1.00394 2.30787 1.29125 1.79956 1.79956C1.29125 2.30787 1.00394 2.99615 1 3.715V12.285C1.00394 13.0038 1.29125 13.6921 1.79956 14.2004C2.30787 14.7088 2.99615 14.9961 3.715 15H12.285C13.0038 14.9961 13.6921 14.7088 14.2004 14.2004C14.7088 13.6921 14.9961 13.0038 15 12.285V3.715C14.9961 2.99615 14.7088 2.30787 14.2004 1.79956C13.6921 1.29125 13.0038 1.00394 12.285 1H3.715ZM3 5H13V12.285C13 12.699 12.7 13 12.285 13H3.715C3.62024 13.0032 3.52583 12.9869 3.43763 12.9521C3.34944 12.9173 3.26933 12.8648 3.20229 12.7977C3.13524 12.7307 3.08269 12.6506 3.04789 12.5624C3.0131 12.4742 2.99679 12.3798 3 12.285V5Z" fill="#241F31"/>
<rect x="3" y="10" width="10" height="1" fill="#241F31"/>
<rect x="3" y="7" width="10" height="1" fill="#241F31"/>
<rect x="5" y="5" width="1" height="8" fill="#241F31"/>
<rect x="10" y="5" width="1" height="8" fill="#241F31"/>
</svg>
